<?xml version="1.0" standalone="no"?>
<!DOCTYPE svg PUBLIC "-//W3C//DTD SVG 20010904//EN"
 "http://www.w3.org/TR/2001/REC-SVG-20010904/DTD/svg10.dtd">
<svg version="1.0" xmlns="http://www.w3.org/2000/svg"
 width="300.000000pt" height="300.000000pt" viewBox="0 0 300.000000 300.000000"
 preserveAspectRatio="xMidYMid meet">
<metadata>
Created by potrace 1.10, written by Peter Selinger 2001-2011
</metadata>
<g transform="translate(0.000000,300.000000) scale(0.100000,-0.100000)"
fill="#000000" stroke="none">
<path d="M405 2711 c-54 -14 -112 -49 -148 -92 -70 -82 -67 -24 -67 -1119 0
-1095 -3 -1037 67 -1119 19 -23 58 -54 87 -69 l51 -27 1085 0 1085 0 56 28
c74 36 140 108 168 180 21 57 21 67 21 744 0 481 -3 697 -11 723 -19 64 -78
131 -144 165 -56 29 -64 30 -187 30 l-128 0 0 176 c0 168 -1 177 -26 227 -14
28 -46 70 -71 92 -83 73 -47 70 -977 69 -457 -1 -844 -4 -861 -8z m1755 -57
c25 -12 58 -34 73 -50 57 -57 61 -75 67 -266 7 -230 -1 -221 178 -228 145 -6
183 -19 236 -82 19 -21 39 -58 45 -81 9 -30 11 -231 9 -732 l-3 -690 -22 -42
c-30 -55 -83 -106 -141 -135 l-47 -23 -1075 0 -1075 0 -41 22 c-53 28 -107 91
-122 142 -17 55 -17 1967 0 2022 13 46 68 113 109 134 15 9 45 19 66 24 21 5
401 9 868 8 821 -2 830 -2 875 -23z"/>
<path d="M873 2080 c-89 -54 -89 -157 1 -224 27 -20 41 -21 504 -24 262 -2
492 0 510 3 43 8 98 57 112 100 16 47 -1 95 -46 135 l-35 30 -507 0 c-485 0
-508 -1 -539 -20z m1068 -49 c39 -39 39 -80 0 -123 l-29 -33 -505 0 -505 0
-26 24 c-14 13 -28 36 -31 52 -7 31 15 82 42 98 12 7 198 11 521 11 l504 0 29
-29z"/>
<path d="M2330 1990 c-11 -11 -22 -30 -25 -42 -3 -13 -4 -329 -3 -703 3 -748
0 -706 65 -767 103 -97 262 -40 293 105 7 37 10 248 8 689 l-3 634 -25 37
c-37 55 -72 67 -189 67 -87 0 -104 -3 -121 -20z m262 -49 l33 -29 3 -657 c2
-632 2 -658 -17 -700 -46 -104 -185 -114 -248 -18 -17 25 -18 72 -21 730 l-3
703 111 0 c107 0 110 -1 142 -29z"/>
<path d="M643 1631 c-49 -8 -89 -41 -110 -89 -30 -72 31 -164 119 -177 24 -3
316 -5 650 -3 595 3 607 3 634 24 92 68 92 160 0 228 -27 21 -38 21 -639 22
-337 1 -631 -2 -654 -5z m1301 -72 c15 -17 26 -43 26 -59 0 -16 -11 -42 -26
-59 l-26 -31 -648 0 -649 0 -28 24 c-37 32 -39 93 -4 130 l24 26 653 0 652 0
26 -31z"/>
<path d="M626 1160 c-38 -12 -75 -47 -93 -88 -19 -46 -3 -101 42 -141 l36 -31
654 0 654 0 36 31 c19 17 40 48 46 69 10 33 9 44 -9 82 -12 24 -36 52 -54 63
-32 19 -55 20 -658 22 -344 1 -638 -2 -654 -7z m1315 -68 c39 -43 39 -84 0
-123 l-29 -29 -646 0 -645 0 -26 23 c-37 32 -43 84 -15 120 13 16 32 33 44 37
11 5 306 8 654 7 l634 -2 29 -33z"/>
</g>
</svg>
